<mxfile><diagram id="97bCojE-fGkbDpPe5K_i" name="Page-1"><mxGraphModel dx="684" dy="512" grid="1" gridSize="10" guides="1" tooltips="1" connect="1" arrows="1" fold="1" page="1" pageScale="1" pageWidth="850" pageHeight="1100" math="0" shadow="0"><root><mxCell id="0"/><mxCell id="1" parent="0"/><mxCell id="11" value="" style="group" vertex="1" connectable="0" parent="1"><mxGeometry x="100" y="90" width="180" height="90" as="geometry"/></mxCell><mxCell id="6" value="Input" style="rounded=0;whiteSpace=wrap;html=1;" vertex="1" parent="11"><mxGeometry y="20" width="90" height="20" as="geometry"/></mxCell><mxCell id="7" value="Output" style="rounded=0;whiteSpace=wrap;html=1;" vertex="1" parent="11"><mxGeometry x="90" y="20" width="90" height="20" as="geometry"/></mxCell><mxCell id="8" value="Alice's prev tx&lt;br&gt;Alice's signature" style="rounded=0;whiteSpace=wrap;html=1;" vertex="1" parent="11"><mxGeometry y="40" width="90" height="50" as="geometry"/></mxCell><mxCell id="9" value="Alice &amp;amp; Bob Multisig&lt;br&gt;10 coins" style="rounded=0;whiteSpace=wrap;html=1;" vertex="1" parent="11"><mxGeometry x="90" y="40" width="90" height="50" as="geometry"/></mxCell><mxCell id="10" value="Funding Transaction" style="rounded=0;whiteSpace=wrap;html=1;" vertex="1" parent="11"><mxGeometry width="180" height="20" as="geometry"/></mxCell><mxCell id="21" value="" style="group" vertex="1" connectable="0" parent="1"><mxGeometry x="370" y="70" width="180" height="110" as="geometry"/></mxCell><mxCell id="12" value="" style="group" vertex="1" connectable="0" parent="21"><mxGeometry y="20" width="180" height="90" as="geometry"/></mxCell><mxCell id="13" value="Input" style="rounded=0;whiteSpace=wrap;html=1;" vertex="1" parent="12"><mxGeometry y="20" width="90" height="20" as="geometry"/></mxCell><mxCell id="14" value="Output" style="rounded=0;whiteSpace=wrap;html=1;" vertex="1" parent="12"><mxGeometry x="90" y="20" width="90" height="20" as="geometry"/></mxCell><mxCell id="15" value="&lt;font style=&quot;font-size: 9px&quot;&gt;funding transaction id&lt;br&gt;&amp;lt;Bob's signature&amp;gt;&lt;/font&gt;" style="rounded=0;whiteSpace=wrap;html=1;align=left;" vertex="1" parent="12"><mxGeometry y="40" width="90" height="50" as="geometry"/></mxCell><mxCell id="16" value="Alice's address" style="rounded=0;whiteSpace=wrap;html=1;" vertex="1" parent="12"><mxGeometry x="90" y="40" width="90" height="50" as="geometry"/></mxCell><mxCell id="17" value="Lock Time: 1 Week in the future" style="rounded=0;whiteSpace=wrap;html=1;" vertex="1" parent="12"><mxGeometry width="180" height="20" as="geometry"/></mxCell><mxCell id="20" value="Refund Transaction" style="rounded=0;whiteSpace=wrap;html=1;" vertex="1" parent="21"><mxGeometry width="180" height="20" as="geometry"/></mxCell></root></mxGraphModel></diagram></mxfile>